<svg viewBox="0 0 851 824" version="1.1" xmlns="http://www.w3.org/2000/svg" xml:space="preserve" fill="#2196f3" style="fill-rule:evenodd;clip-rule:evenodd;stroke-linejoin:round;stroke-miterlimit:2;"><g id="Artboard2" transform="matrix(0.923445,0,0,0.946835,1010.720714,475.542149)"><rect x="-1094.511" y="-502.244" width="920.854" height="870.185" style="fill:none;"/><g id="large-logo.png" transform="matrix(1.143923,0,0,1.115664,-1066.24595,-583.414433)"><path d="M251.482,760.708C189.3,753.837 174.416,762.181 174.335,730.502C174.324,726.421 174.837,726.438 175.21,679.495C175.259,673.284 176.345,638.599 175.207,518.5C174.987,495.319 175.472,451.456 174.454,444.504C174.425,444.303 174.252,422.281 174.273,420.498C174.519,399.502 183.392,394.542 212.502,395.386C248.408,396.426 356.905,422.877 369.174,447.667C373.612,456.636 371.239,460.818 371.641,603.5C371.927,705.124 371.258,705.104 372.551,719.496C372.955,723.988 371.979,782.771 375.132,786.829C378.906,791.686 381.997,786.334 382.189,785.431C384.089,776.483 384.336,596.628 383.47,587.502C383.273,585.418 383.168,478.941 383.158,469.501C383.136,446.345 388.395,441.21 419.342,426.158C435.719,418.192 486.49,403.471 502.447,401.063C503.981,400.831 503.91,400.507 521.535,397.603C534.027,395.544 561.907,393.861 570.667,398.101C575.78,400.576 577.573,400.87 580.458,409.514C582.057,414.301 581.11,427.68 581.539,433.497C581.74,436.211 581.072,436.167 580.853,467.504C580.268,551.018 579.753,550.929 579.924,634.502C579.978,660.441 580.825,661.133 580.939,714.499C580.979,733.424 586.648,751.974 563.54,754.954C545.003,757.345 545.123,757.866 526.507,758.664C489.424,760.253 421.028,772.712 392.556,800.559C371.34,821.309 367.662,803.636 354.281,794.845C332.892,780.795 320.118,775.694 279.463,765.663C267.16,762.627 259.41,762.224 253.528,761.013L251.482,760.708Z" style="fill-opacity:1;"/><path d="M342.525,116.986C349.935,115.602 357.215,115.428 358.498,115.397C421.228,113.899 444.102,122.459 459.382,125.845C459.42,125.852 504.198,135.196 557.196,168.905C681.538,247.991 702.859,365.514 707.724,385.451C718.388,429.155 719.686,495.005 719.356,497.266C718.806,496.876 718.255,496.486 717.704,496.096C717.44,495.774 717.176,495.451 716.911,495.128C711.941,491.217 706.64,488.637 705.69,488.175C679.298,475.33 671.677,475.101 656.433,472.723C655.375,472.558 654.83,472.277 654.362,459.505C653.392,433.029 653.091,429.735 646.858,399.37C641.723,380.068 641.797,380.122 634.816,361.373C616.715,312.755 556.805,220.847 437.523,193.416C436.833,193.192 436.143,192.968 435.454,192.744L433.538,192.39C432.518,192.134 431.498,191.877 430.478,191.621C415.735,189.123 415.728,189.212 414.459,188.929C362.182,182.567 327.978,190.814 323.533,191.672C322.509,191.904 321.484,192.137 320.46,192.369C302.931,196.951 302.9,196.726 301.396,197.185C239.461,216.102 206.881,246.697 200.169,252.144C187.93,262.077 188.771,262.888 186.134,265.134C182.356,268.35 182.675,268.598 179.137,272.141C112.131,339.234 105.444,423.764 104.631,429.519C99.63,464.943 99.516,472.591 99.516,472.591C99.516,472.591 83.482,474.729 67.417,480.062C60.812,482.255 52.733,487.443 47.584,490.219C43.821,492.248 36.526,496.718 36.526,496.718C36.526,496.718 36.487,493.839 36.463,493.504L36.519,492.499C36.392,484.493 37.01,484.589 37.064,476.499C37.163,461.682 37.987,461.773 38.17,454.488C39.06,419.001 51.736,354.921 71.127,315.326C72.074,313.394 88.556,277.012 111.322,249.36C126.185,231.308 125.987,231.242 130.479,226.479C173.556,180.81 226.281,143.867 297.448,125.285C301.149,124.094 301.128,124.229 301.444,124.125C320.931,119.997 320.714,119.126 340.48,117.291L342.525,116.986Z" style="fill-opacity:1;"/><path d="M748.628,566.479C752.628,581.997 750.393,610.341 751.102,617.563C751.663,623.281 751.652,657.066 751.651,660.501C751.629,727.46 709.894,749.066 687.667,759.862C683.425,761.923 662.843,769.487 646.5,768.514C621,768.547 621.755,757.024 620.663,748.474C620.613,748.089 622.687,720.212 622.371,637.5C622.086,562.969 621.991,562.979 621.991,556.499C621.99,547.018 621.158,508.661 621.067,504.501C620.659,485.684 628.564,485.775 654.51,487.337C665.347,487.99 736.113,499.294 748.628,566.479Z" style="fill-opacity:1;"/><path d="M4.677,602.778C6.426,585.809 1.957,579.243 14.926,545.686C17.918,537.946 34.298,500.723 90.444,489.079C93.041,488.54 110.884,484.84 123.546,487.268C137.651,489.973 134.668,500.624 134.606,531.5C134.594,537.74 133.915,537.681 133.618,609.501C133.491,640.205 133.424,650.708 133.166,652.418C132.911,654.115 133.607,654.122 133.946,725.497C133.987,734.195 140.225,762.519 124.455,766.393C111.163,769.658 111.095,768.572 105.501,768.473L104.504,768.431C103.271,768.326 88.681,768.913 66.7,760.129C64.984,759.443 61.131,757.296 60.657,757.031C60.037,756.717 59.418,756.402 58.798,756.088C51.727,752.899 31.905,739.137 22.585,724.449C22.052,723.688 21.518,722.926 20.984,722.165C14.859,712.716 15.4,712.451 15.153,711.647C15.029,711.391 14.184,709.646 13.549,708.476C4.881,690.144 4.099,667.666 4.431,647.499C4.431,647.499 3.148,617.607 4.677,602.778Z" style="fill-opacity:1;"/></g></g></svg>